<svg width="574" height="574" viewBox="0 0 574 574" fill="none" xmlns="http://www.w3.org/2000/svg">
<circle cx="286.77" cy="286.77" r="209.601" fill="#D80024"/>
<circle cx="287" cy="286.043" r="228.643" stroke="#FF5100" stroke-opacity="0.8" stroke-width="1.91333"/>
<circle cx="287" cy="286.044" r="257.343" stroke="#FF5100" stroke-opacity="0.4" stroke-width="1.91333"/>
<circle cx="287" cy="287" r="286.043" stroke="#FF5100" stroke-opacity="0.15" stroke-width="1.91333"/>
<path fill-rule="evenodd" clip-rule="evenodd" d="M263.594 231.832C261.36 229.626 260.388 227.237 259.678 225.425C259.284 224.428 258.732 222.616 257.392 222.616C253.03 222.616 250.717 236.794 249.902 240.942C245.593 235.56 241.782 230.991 238.681 224.69C237.656 227.946 236.789 231.333 235.869 234.641C231.349 225.32 228.695 218.52 227.328 207.415L223.781 213.611C220.732 201.77 220.18 193.08 222.913 180.582L218.525 183.103C220.837 168.952 224.543 158.03 237.025 147.396C233.057 136.002 233.898 125.684 238.103 115.339C244.016 118.149 255.815 125.447 262.28 122.271C269.848 118.542 278.626 118.122 286.799 119.698C294.972 118.096 303.775 118.542 311.317 122.271C317.467 125.316 328.898 118.464 335.494 115.339C339.83 126.34 340.54 136.002 336.572 147.396C348.897 157.925 352.707 168.531 355.073 183.103L350.684 180.582C353.443 193.08 353.259 201.901 349.817 213.611L346.269 207.415C344.929 218.258 343.221 225.635 337.728 234.641C336.808 231.333 335.941 227.946 334.916 224.69C331.815 231.018 328.031 235.56 323.695 240.942C322.88 236.794 320.594 222.616 316.205 222.616C314.865 222.616 314.313 224.428 313.919 225.425C313.209 227.237 312.237 229.652 310.003 231.832C309.057 248.241 295.471 245.458 286.825 251.523C278.179 245.484 264.593 248.267 263.647 231.832H263.594Z" fill="white"/>
<path fill-rule="evenodd" clip-rule="evenodd" d="M350.447 177.038C347.346 164.488 342.8 156.191 332.972 148.341C335.994 141.069 337.387 130.908 333.681 119.487C325.219 123.504 316.941 128.388 309.977 124.948C299.255 119.671 287.613 122.638 286.772 122.743C285.931 122.638 274.29 119.671 263.568 124.948C256.604 128.388 248.878 123.767 239.864 119.487C236.158 130.882 237.525 141.069 240.573 148.341C230.745 156.191 226.198 164.488 223.097 177.038C225.725 175.515 227.67 174.648 227.67 174.648C225.226 181.869 223.097 193.079 225.252 204.973C227.118 201.717 229.562 199.144 229.562 199.144C230.14 207.362 231.034 216.288 235.238 225.793C236.684 220.594 238.55 216.682 238.55 216.682C241.125 223.85 244.305 229.206 248.194 234.063C251.216 218.651 257.76 217.943 260.808 221.224C262.7 223.246 262.595 227.315 266.564 230.466C266.564 245.615 282.305 244.749 286.772 247.873C291.24 244.749 306.981 245.615 306.981 230.466C310.949 227.315 310.844 223.246 312.736 221.224C315.785 217.969 322.328 218.651 325.351 234.063C329.24 229.232 332.42 223.85 334.995 216.682C334.995 216.682 336.861 220.594 338.306 225.793C342.511 216.288 343.405 207.362 343.983 199.144C343.983 199.144 346.427 201.717 348.293 204.973C350.447 193.079 348.345 181.869 345.875 174.648C345.875 174.648 347.819 175.515 350.447 177.038Z" fill="#050703"/>
<path fill-rule="evenodd" clip-rule="evenodd" d="M324.877 164.567C322.46 153.041 315.916 147.633 311.659 144.902C319.7 128.965 294.42 128.257 287.429 134.453C289.269 133.823 298.94 130.698 307.875 135.135C305.799 134.19 290.425 133.665 287.35 139.992C289.321 139.205 299.544 135.424 309.294 140.701C307.113 139.861 294.209 139.362 288.822 143.616C291.108 144.955 292.738 146.477 293.894 148.499C291.03 146.215 289.085 145.506 286.746 145.007C284.407 145.532 282.463 146.215 279.598 148.499C280.781 146.451 282.41 144.928 284.723 143.589C279.309 139.389 266.458 139.887 264.277 140.701C274.027 135.424 284.25 139.205 286.22 139.992C283.12 133.665 267.772 134.19 265.696 135.135C274.631 130.698 284.46 133.823 286.299 134.453C283.882 130.173 271.741 130.514 270.295 131.171C276.392 127.285 285.879 130.436 286.799 130.751C291.108 128.493 298.598 127.338 305.089 128.02C298.335 125.054 288.402 127.863 286.799 128.02C281.227 127.548 273.291 125.001 264.829 129.989C258.837 133.508 249.587 129.044 242.676 125.237C241.204 130.856 242.991 139.861 246.171 144.456C246.565 144.193 246.985 143.931 247.406 143.668C245.776 141.647 243.989 138.207 243.385 131.512C245.225 134.321 248.615 134.269 248.615 134.269L246.67 136.474C246.67 136.474 249.035 138.601 252.005 140.57C255.211 138.312 258.391 135.844 260.703 133.56C257.287 140.623 249.508 148.105 244.778 151.65C239.075 155.929 233.846 162.86 231.375 169.477C239.837 157.688 250.954 153.619 250.954 153.619C246.512 160.392 244.121 167.14 242.912 171.498L248.772 167.901C248.772 167.901 244.568 175.909 245.882 185.886C246.092 185.623 250.06 180.162 250.06 180.162C250.06 180.162 251.243 187.172 252.767 190.848C253.266 186.988 255.947 186.437 258.627 187.093C256.104 182.42 257.155 173.782 264.698 171.734C265.775 165.801 273.58 165.013 276.182 166.904C273.002 166.641 269.533 167.324 268.219 171.288C269.323 171.288 270.505 171.393 271.793 171.629C270.059 171.839 268.035 172.286 266.196 173.126C261.465 175.331 277.68 183.234 275.498 179.217C274.526 177.432 274.053 174.412 276.287 169.477C275.63 172.68 275.945 176.802 278.284 179.007C279.388 177.773 280.623 176.513 280.623 176.513C280.623 176.513 283.225 178.324 286.825 179.243C290.425 178.351 293.027 176.513 293.027 176.513C293.027 176.513 295.129 178.744 295.366 179.007C297.678 176.802 297.994 172.68 297.363 169.477C299.597 174.412 299.15 177.432 298.178 179.217C300.411 180.372 307.796 176.985 307.454 173.152C305.641 172.286 303.591 171.839 301.857 171.656C303.039 171.446 304.143 171.341 305.168 171.314C303.88 167.35 300.385 166.667 297.205 166.93C299.754 165.039 307.454 165.827 308.637 171.603C315.706 172.995 318.045 179.296 317.467 184.337C321.041 179.243 321.093 172.968 321.093 172.968C321.093 172.968 321.785 173.721 323.169 175.226C323.826 166.746 321.251 161.495 321.251 161.495C321.251 161.495 322.565 162.624 324.904 164.619L324.877 164.567Z" fill="#E9530D"/>
<path fill-rule="evenodd" clip-rule="evenodd" d="M329.818 154.196C333.524 157.872 338.28 161.521 342.196 169.45C337.308 156.375 329.135 152.962 321.724 145.112C323.275 147.79 327.243 151.623 329.818 154.196Z" fill="#E9530D"/>
<path fill-rule="evenodd" clip-rule="evenodd" d="M323.327 135.004L324.247 131.801C324.247 131.801 327.637 133.613 329.765 132.352C330.186 134.531 330.212 136.789 330.028 138.89C331.342 134.925 331.789 128.939 330.817 125.237C326.27 126.944 321.724 131.013 312.237 129.333C317.835 130.803 323.327 135.03 323.327 135.03V135.004Z" fill="#E9530D"/>
<path fill-rule="evenodd" clip-rule="evenodd" d="M265.145 164.12C259.153 161.704 252.084 153.959 261.544 144.901C268.219 145.479 273.265 147.789 276.129 154.301C278.311 152.647 281.333 151.57 281.333 151.57C281.333 151.57 276.655 156.585 277.864 160.602C271.846 160.05 265.171 164.12 265.171 164.12H265.145Z" fill="white"/>
<path fill-rule="evenodd" clip-rule="evenodd" d="M259.494 175.094C256.236 171.918 254.475 165.643 256.42 160.103C251.768 164.435 250.375 178.035 257.366 182.708C257.182 180.109 257.813 177.274 259.494 175.094Z" fill="white"/>
<path fill-rule="evenodd" clip-rule="evenodd" d="M287.377 209.909C287.219 212.429 287.193 214.871 286.773 214.871C286.352 214.871 286.326 212.298 286.142 209.699C284.145 209.489 282.305 209.751 281.096 209.804C281.096 210.329 281.149 210.88 281.254 211.458C281.885 215.265 284.355 218.363 286.773 218.363C288.98 218.363 291.266 215.764 292.107 212.377C290.609 210.959 288.98 210.25 287.377 209.909Z" fill="#9C1929"/>
<path fill-rule="evenodd" clip-rule="evenodd" d="M318.702 189.902C322.801 184.625 322.933 180.555 323.117 179.059C324.326 180.529 325.35 181.317 325.35 181.317C325.35 181.317 326.507 175.751 325.35 168.032C327.4 169.371 328.346 170.106 328.346 170.106C328.346 170.106 327.137 162.991 325.745 160.103C328.951 165.144 330.186 171.051 329.765 174.018C328.373 172.889 327.663 172.522 327.663 172.522C327.663 172.522 328.373 179.715 326.507 184.31C325.508 183.522 324.72 182.918 324.22 182.393C324.22 182.393 321.96 187.618 318.728 189.876L318.702 189.902Z" fill="white"/>
<path fill-rule="evenodd" clip-rule="evenodd" d="M329.766 132.352C330.58 136.527 329.976 141.043 329.03 144.062C331.08 140.386 332.735 133.192 330.817 125.237C330.475 126.944 328.714 131.801 324.247 131.801C324.247 131.801 327.637 133.613 329.766 132.352Z" fill="white"/>
<path fill-rule="evenodd" clip-rule="evenodd" d="M276.234 160.838C276.234 160.838 279.362 160.759 281.28 161.284C279.756 158.449 276.707 157.924 274.789 158.318C269.507 150.704 263.857 149.89 259.836 152.436C259.284 150.94 259.1 147.947 261.544 144.901C255.579 147.002 255.316 152.62 256.525 155.876C253.818 160.234 253.45 166.824 257.392 172.259C254.948 163.122 258.338 159.131 262.122 158.816C263.541 160.707 265.617 161.704 265.617 161.704C265.617 161.704 265.039 162.833 265.171 164.12C274.868 159.158 280.518 166.877 281.28 170.841C281.516 162.229 276.234 160.838 276.234 160.838Z" fill="#050703"/>
<path fill-rule="evenodd" clip-rule="evenodd" d="M264.251 148C267.431 148.315 269.375 149.155 270.663 150.573C271.609 149.129 274.29 145.033 278.415 144.324C273.869 143.536 267.142 145.243 264.251 148Z" fill="#050703"/>
<path fill-rule="evenodd" clip-rule="evenodd" d="M308.059 164.12C314.05 161.704 321.12 153.959 311.659 144.901C304.984 145.479 299.938 147.789 297.074 154.301C294.893 152.647 291.871 151.57 291.871 151.57C291.871 151.57 296.548 156.585 295.339 160.602C301.357 160.05 308.032 164.12 308.032 164.12H308.059Z" fill="white"/>
<path fill-rule="evenodd" clip-rule="evenodd" d="M311.659 144.901C314.103 147.947 313.919 150.94 313.367 152.436C309.373 149.89 303.722 150.73 298.414 158.318C296.496 157.924 293.447 158.475 291.923 161.284C293.841 160.759 296.969 160.838 296.969 160.838C296.969 160.838 291.686 162.203 291.923 170.841C292.685 166.877 298.335 159.158 308.032 164.12C308.164 162.833 307.586 161.704 307.586 161.704C307.586 161.704 309.662 160.733 311.081 158.816C314.865 159.105 318.229 163.122 315.811 172.259C320.541 166.719 321.067 148.236 311.633 144.901H311.659Z" fill="#050703"/>
<path fill-rule="evenodd" clip-rule="evenodd" d="M307.743 153.96C307.034 154.249 306.377 154.564 305.799 154.879C306.561 155.142 307.086 155.877 307.086 156.717C307.086 157.794 306.219 158.66 305.142 158.66C304.064 158.66 303.171 157.767 303.197 156.665C302.303 157.426 301.594 158.187 300.911 158.923C302.093 160.445 306.035 161.784 308.926 158.634C311.501 155.851 309.215 153.882 307.717 153.934L307.743 153.96Z" fill="#FFDA6D"/>
<path fill-rule="evenodd" clip-rule="evenodd" d="M308.952 148C305.773 148.315 303.828 149.155 302.54 150.573C301.594 149.129 298.914 145.033 294.788 144.324C299.334 143.536 306.062 145.243 308.952 148Z" fill="#050703"/>
<path fill-rule="evenodd" clip-rule="evenodd" d="M271.057 197.333C270.663 203.424 272.871 206.994 274.631 210.565C274.106 206.837 274.973 201.376 276.366 198.041C275.236 196.939 272.398 196.335 271.057 197.333Z" fill="white"/>
<path fill-rule="evenodd" clip-rule="evenodd" d="M302.514 198.75C302.041 196.781 298.519 196.256 296.864 197.385C298.388 200.614 299.465 206.6 298.887 210.539C300.516 207.257 302.514 203.975 302.514 198.724V198.75Z" fill="white"/>
<path fill-rule="evenodd" clip-rule="evenodd" d="M290.898 196.204C288.481 196.624 285.012 196.624 282.594 196.204C281.937 196.099 280.571 195.652 280.098 196.492C279.625 197.333 279.809 199.092 280.255 200.588C281.201 199.853 281.99 197.858 281.99 197.858L283.225 198.803L284.381 197.805L285.616 198.672L286.694 197.831L287.771 198.672L289.006 197.805L290.163 198.803L291.398 197.858C291.398 197.858 292.186 199.879 293.132 200.588C293.579 199.118 293.763 197.333 293.29 196.492C292.817 195.652 291.45 196.099 290.793 196.204H290.898Z" fill="white"/>
<path fill-rule="evenodd" clip-rule="evenodd" d="M277.68 212.612C276.182 216.262 276.156 221.04 277.338 223.377C278.521 225.713 281.779 224.427 281.07 221.066C279.756 219.78 278.153 216.314 277.653 212.586L277.68 212.612Z" fill="white"/>
<path fill-rule="evenodd" clip-rule="evenodd" d="M295.839 212.613C295.366 216.341 293.737 219.807 292.423 221.094C291.739 224.454 294.998 225.741 296.154 223.404C297.337 221.067 297.311 216.289 295.813 212.64L295.839 212.613Z" fill="white"/>
<path fill-rule="evenodd" clip-rule="evenodd" d="M289.847 220.462C289.111 220.804 288.638 221.513 288.638 221.513C288.638 221.513 288.034 220.646 287.666 220.489C287.061 220.725 286.746 221.198 286.746 221.198C286.746 221.198 286.431 220.751 285.826 220.489C285.458 220.646 284.854 221.513 284.854 221.513C284.854 221.513 284.381 220.804 283.645 220.462C282.2 221.329 282.673 222.668 283.225 222.563C285.274 222.221 288.191 222.221 290.241 222.563C290.793 222.668 291.266 221.329 289.821 220.462H289.847Z" fill="white"/>
<path fill-rule="evenodd" clip-rule="evenodd" d="M277.364 227.027C277.364 227.893 277.417 228.76 277.469 229.468C276.629 229.101 273.685 226.685 272.687 225.346C269.481 221.093 273.238 213.479 268.692 207.992C266.958 209.226 265.959 209.751 265.959 209.751C267.247 193.998 251.926 184.757 255.395 203.398C251.348 198.042 249.219 191.977 248.431 186.857C246.512 188.957 244.305 192.869 244.305 192.869C244.305 192.869 241.572 180.766 243.937 173.887C239.943 176.329 238.05 178.797 238.05 178.797C238.05 178.797 239.759 166.195 250.927 153.592C250.927 153.592 239.811 157.662 231.349 169.45C233.793 168.19 236.447 168.19 236.447 168.19C236.447 168.19 229.72 175.594 230.035 191.74C231.927 189.167 233.898 187.277 233.898 187.277C233.898 187.277 233.136 200.194 236.421 211.195C238.05 206.706 239.969 204.001 239.969 204.001C239.969 204.001 242.176 216.42 246.828 223.377C252.005 210.355 264.33 213.768 265.959 219.649C267.772 226.265 272.292 228.129 272.292 228.129C272.292 228.129 269.297 235.166 277.837 239.235C277.443 237.844 277.338 235.218 277.89 233.433C279.467 240.574 283.934 240.364 286.772 242.255C289.716 240.312 294.525 240.574 295.629 233.433C296.417 235.848 296.233 238.106 295.576 239.472C311.896 231.464 289.821 221.408 277.364 227.053V227.027Z" fill="white"/>
<path fill-rule="evenodd" clip-rule="evenodd" d="M307.192 154.196C306.509 154.511 305.825 154.8 305.142 155.273C305.01 156.455 306.088 156.927 307.087 156.428C308.059 155.929 308.322 154.564 307.192 154.196Z" fill="white"/>
<path fill-rule="evenodd" clip-rule="evenodd" d="M269.98 156.664C270.006 157.766 269.113 158.659 268.035 158.659C266.958 158.659 266.091 157.793 266.091 156.716C266.091 155.876 266.642 155.141 267.405 154.878C266.826 154.563 266.196 154.248 265.46 153.96C263.962 153.907 261.676 155.876 264.251 158.659C267.142 161.81 271.084 160.471 272.266 158.948C271.583 158.213 270.873 157.425 269.98 156.664Z" fill="#FFDA6D"/>
<path fill-rule="evenodd" clip-rule="evenodd" d="M266.012 154.196C264.882 154.564 265.145 155.903 266.117 156.428C267.09 156.953 268.193 156.428 268.062 155.273C267.379 154.8 266.695 154.511 266.012 154.223V154.196Z" fill="white"/>
<path fill-rule="evenodd" clip-rule="evenodd" d="M243.306 131.486C245.146 134.295 248.536 134.243 248.536 134.243C245.382 131.801 243.306 126.786 242.623 125.237C240.731 134.138 242.86 141.594 245.093 145.112C245.855 144.613 246.591 144.141 247.353 143.668C245.724 141.647 243.911 138.207 243.306 131.486Z" fill="white"/>
<path fill-rule="evenodd" clip-rule="evenodd" d="M336.703 205.865C335.494 203.003 332.42 198.96 332.42 198.96C331.158 204.158 330.344 208.018 326.481 215.028C323.353 210.486 316.941 205.235 308.479 207.256C307.848 209.672 307.402 215.842 307.901 218.861C311.659 210.643 323.143 214.477 326.717 223.403C330.239 218.441 332.761 210.171 333.576 204.053C333.734 204.29 335.547 206.968 337.097 211.247C337.912 208.097 340.014 192.475 339.62 187.329C339.62 187.329 338.701 198.33 336.677 205.917L336.703 205.865Z" fill="white"/>
<path fill-rule="evenodd" clip-rule="evenodd" d="M278.521 182.026C277.312 181.396 276.103 180.398 275.446 179.217C269.849 176.486 267.484 174.911 266.143 173.125C263.621 174.149 259.679 179.138 272.293 183.575C266.8 182.892 263.016 180.424 261.019 178.193C258.049 185.596 270.795 187.671 275.578 187.881C270.847 188.511 265.118 187.671 261.413 186.384C264.54 191.609 271.11 192.265 278.311 191.215C276.156 192.423 272.713 193.21 269.034 193.42C276.235 197.7 280.623 192.344 285.722 192.449C284.618 187.434 284.066 184.861 278.574 182.026H278.521Z" fill="white"/>
<path fill-rule="evenodd" clip-rule="evenodd" d="M297.967 187.881C302.593 187.671 315.653 185.518 312.526 178.193C310.529 180.451 306.745 182.892 301.252 183.575C313.866 179.138 309.898 174.149 307.375 173.125C306.035 174.911 303.67 176.46 298.099 179.19C297.416 180.477 296.286 181.343 295.024 182C289.453 184.861 288.98 187.408 287.85 192.423C292.922 192.318 297.337 197.674 304.537 193.394C300.858 193.184 297.416 192.396 295.261 191.189C302.461 192.239 309.057 191.609 312.158 186.358C308.453 187.644 302.698 188.485 297.994 187.854L297.967 187.881Z" fill="white"/>
<path d="M299.741 279.032L295.405 274.674L286.812 283.259L278.218 274.674L273.856 279.032L282.449 287.617L273.856 296.203L278.218 300.535L286.812 291.949L295.405 300.535L299.741 296.203L291.148 287.617L299.741 279.032Z" fill="#050703"/>
<path d="M219.668 433.402C217.329 433.402 215.489 432.746 214.123 431.46C212.756 430.147 212.099 428.362 212.099 426.051V418.28H217.381V425.71C217.381 426.524 217.644 427.154 218.17 427.6C218.695 428.047 219.379 428.283 220.246 428.283C221.507 428.283 222.69 428.099 223.82 427.705V418.306H229.102V440.019H223.82V432.72C222.479 433.166 221.087 433.402 219.694 433.402H219.668Z" fill="white"/>
<path d="M237.985 435.136H246.236V440.02H232.65V418.307H246.079V423.138H237.958V426.709H245.29V431.487H237.958V435.136H237.985Z" fill="white"/>
<path d="M273.751 440.02H268.232L266.366 430.804L261.058 440.492H260.769L255.486 430.883L253.594 440.046H248.023L252.517 417.861H253.226L260.874 431.487L268.547 417.861H269.231L273.724 440.046L273.751 440.02Z" fill="white"/>
<path d="M276.063 440.02V418.307H292.751V440.02H287.442V423.427H281.398V440.02H276.089H276.063Z" fill="white"/>
<path d="M315.824 440.02H310.542V428.625L296.666 440.492H296.351V418.307H301.659V429.702L315.535 417.834H315.824V440.02Z" fill="white"/>
<path d="M320.081 434.9C319.083 433.167 318.583 431.251 318.583 429.15C318.583 427.05 319.083 425.133 320.081 423.4C321.08 421.668 322.473 420.302 324.207 419.331C325.968 418.333 327.886 417.834 330.041 417.834C332.196 417.834 334.088 418.333 335.823 419.331C337.557 420.329 338.95 421.694 339.948 423.427C340.947 425.16 341.446 427.076 341.446 429.177C341.446 431.277 340.947 433.167 339.948 434.9C338.95 436.633 337.583 437.998 335.823 438.996C334.088 439.993 332.143 440.492 330.015 440.492C327.886 440.492 325.915 439.993 324.155 438.996C322.394 437.998 321.027 436.633 320.029 434.926L320.081 434.9ZM335.402 432.301C335.928 431.382 336.19 430.332 336.19 429.177C336.19 428.021 335.928 426.971 335.376 426.052C334.85 425.133 334.114 424.398 333.168 423.847C332.249 423.322 331.197 423.033 330.041 423.033C328.885 423.033 327.834 423.295 326.888 423.821C325.941 424.346 325.206 425.081 324.654 426C324.128 426.919 323.839 427.995 323.839 429.177C323.839 430.358 324.102 431.382 324.628 432.327C325.153 433.272 325.889 434.007 326.835 434.532C327.781 435.058 328.832 435.32 330.015 435.32C331.197 435.32 332.249 435.058 333.195 434.506C334.141 433.955 334.85 433.246 335.376 432.301H335.402Z" fill="white"/>
<path d="M344.206 440.02V418.307H349.514V425.79H356.189V418.307H361.497V440.02H356.189V430.883H349.514V440.02H344.206Z" fill="white"/>
<path d="M243.792 459.237H242.005L243.95 456.034L245.185 456.769L243.792 459.237ZM243.792 456.822L242.11 454.039H243.713L245.211 456.664L243.792 456.822ZM246.079 457.268H244.265V456.061H246.079V457.268ZM247.13 459.237H245.632V454.013H247.13V459.237ZM246.683 457.268V456.061H248.496V457.268H246.683ZM248.943 456.822L247.524 456.664L249.022 454.039H250.625L248.943 456.822ZM248.943 459.237L247.55 456.769L248.785 456.034L250.756 459.237H248.969H248.943Z" fill="white"/>
<path d="M251.545 459.238V454.013H253.043V457.111L255.592 454.013H256.985V459.238H255.487V456.14L252.964 459.238H251.571H251.545Z" fill="white"/>
<path d="M257.773 459.238L257.852 458.004C257.852 458.004 257.931 458.004 257.957 458.004C257.983 458.004 258.036 458.004 258.062 458.004C258.246 458.004 258.377 457.951 258.483 457.846C258.588 457.741 258.666 457.61 258.719 457.426C258.772 457.243 258.798 457.059 258.824 456.822C258.824 456.586 258.877 456.35 258.877 456.113L258.956 454.013H263.424V459.238H261.899V454.879L262.241 455.247H259.954L260.27 454.853L260.191 456.166C260.191 456.639 260.138 457.059 260.086 457.453C260.033 457.846 259.954 458.188 259.823 458.45C259.692 458.739 259.534 458.949 259.324 459.107C259.113 459.264 258.85 459.343 258.535 459.343C258.43 459.343 258.299 459.343 258.167 459.317C258.036 459.317 257.904 459.264 257.747 459.238H257.773Z" fill="white"/>
<path d="M267.339 459.318C266.787 459.318 266.288 459.213 265.867 458.976C265.446 458.74 265.105 458.425 264.842 458.031C264.579 457.637 264.474 457.164 264.474 456.639C264.474 456.114 264.605 455.641 264.842 455.248C265.079 454.854 265.42 454.539 265.867 454.302C266.288 454.066 266.787 453.961 267.339 453.961C267.891 453.961 268.39 454.066 268.811 454.302C269.231 454.539 269.573 454.854 269.836 455.248C270.072 455.641 270.204 456.114 270.204 456.639C270.204 457.164 270.072 457.611 269.836 458.031C269.599 458.425 269.258 458.766 268.811 458.976C268.364 459.213 267.891 459.318 267.339 459.318ZM267.339 458.084C267.602 458.084 267.812 458.031 268.022 457.9C268.233 457.768 268.39 457.611 268.495 457.401C268.6 457.191 268.679 456.928 268.679 456.639C268.679 456.35 268.627 456.088 268.495 455.852C268.39 455.641 268.233 455.484 268.022 455.353C267.812 455.248 267.602 455.169 267.339 455.169C267.076 455.169 266.866 455.221 266.656 455.353C266.445 455.458 266.288 455.641 266.182 455.852C266.051 456.062 265.998 456.324 265.998 456.639C265.998 456.954 266.051 457.191 266.182 457.401C266.314 457.611 266.472 457.795 266.656 457.9C266.866 458.005 267.076 458.084 267.339 458.084Z" fill="white"/>
<path d="M271.254 459.237V454.013H272.752V457.111L275.301 454.013H276.694V459.237H275.196V456.139L272.673 459.237H271.28H271.254ZM273.882 453.461C273.304 453.461 272.883 453.33 272.594 453.094C272.305 452.857 272.174 452.464 272.148 451.965H273.146C273.146 452.175 273.225 452.359 273.33 452.49C273.435 452.621 273.619 452.674 273.856 452.674C274.092 452.674 274.276 452.621 274.408 452.49C274.539 452.359 274.592 452.175 274.592 451.965H275.59C275.59 452.464 275.433 452.857 275.143 453.094C274.854 453.33 274.434 453.461 273.856 453.461H273.882Z" fill="white"/>
<path d="M280.899 459.238V454.013H282.423V459.238H280.899ZM281.95 457.269V456.061H283.763V457.269H281.95ZM284.21 456.822L282.791 456.665L284.631 454.039H286.234L284.21 456.822ZM284.605 459.238L282.844 456.77L284.079 456.035L286.392 459.238H284.605Z" fill="white"/>
<path d="M289.414 459.318C288.862 459.318 288.362 459.213 287.942 458.976C287.521 458.74 287.18 458.425 286.917 458.031C286.654 457.637 286.549 457.164 286.549 456.639C286.549 456.114 286.68 455.641 286.917 455.248C287.153 454.854 287.495 454.539 287.942 454.302C288.362 454.066 288.862 453.961 289.414 453.961C289.966 453.961 290.465 454.066 290.886 454.302C291.306 454.539 291.648 454.854 291.911 455.248C292.147 455.641 292.279 456.114 292.279 456.639C292.279 457.164 292.147 457.611 291.911 458.031C291.674 458.425 291.332 458.766 290.886 458.976C290.465 459.213 289.966 459.318 289.414 459.318ZM289.414 458.084C289.677 458.084 289.887 458.031 290.097 457.9C290.307 457.795 290.465 457.611 290.57 457.401C290.675 457.191 290.754 456.928 290.754 456.639C290.754 456.35 290.702 456.088 290.57 455.852C290.465 455.641 290.307 455.484 290.097 455.353C289.887 455.248 289.677 455.169 289.414 455.169C289.151 455.169 288.941 455.221 288.73 455.353C288.52 455.458 288.362 455.641 288.257 455.852C288.126 456.062 288.073 456.324 288.073 456.639C288.073 456.954 288.126 457.191 288.257 457.401C288.389 457.611 288.546 457.795 288.73 457.9C288.914 458.005 289.151 458.084 289.414 458.084Z" fill="white"/>
<path d="M293.302 459.238V454.013H294.88L296.851 457.584H296.22L298.323 454.013H299.742V459.238H298.401V455.562L298.638 455.719L296.851 458.739H296.22L294.406 455.614L294.695 455.536V459.212H293.329L293.302 459.238Z" fill="white"/>
<path d="M301.213 459.238V454.013H306.417V459.238H304.892V454.932L305.234 455.273H302.369L302.711 454.932V459.238H301.213Z" fill="white"/>
<path d="M307.204 459.238L307.283 458.004C307.283 458.004 307.362 458.004 307.388 458.004C307.415 458.004 307.467 458.004 307.493 458.004C307.677 458.004 307.809 457.951 307.914 457.846C308.019 457.741 308.098 457.61 308.151 457.426C308.203 457.243 308.229 457.059 308.256 456.822C308.282 456.586 308.308 456.35 308.308 456.113L308.387 454.013H312.855V459.238H311.331V454.879L311.673 455.247H309.386L309.701 454.853L309.622 456.166C309.622 456.639 309.57 457.059 309.517 457.453C309.465 457.846 309.386 458.188 309.254 458.45C309.123 458.739 308.965 458.949 308.755 459.107C308.545 459.264 308.282 459.343 307.967 459.343C307.861 459.343 307.73 459.343 307.599 459.317C307.467 459.317 307.336 459.264 307.178 459.238H307.204Z" fill="white"/>
<path d="M316.902 459.318C316.297 459.318 315.772 459.213 315.325 458.976C314.878 458.74 314.536 458.425 314.274 458.031C314.037 457.637 313.906 457.164 313.906 456.639C313.906 456.114 314.037 455.641 314.274 455.248C314.51 454.854 314.852 454.539 315.272 454.302C315.693 454.066 316.166 453.961 316.692 453.961C317.217 453.961 317.664 454.066 318.085 454.276C318.505 454.486 318.821 454.801 319.057 455.195C319.294 455.589 319.425 456.088 319.425 456.639C319.425 456.692 319.425 456.771 319.425 456.849C319.425 456.928 319.425 456.981 319.425 457.059H315.194V456.167H318.637L318.058 456.429C318.058 456.167 318.006 455.93 317.901 455.72C317.796 455.51 317.638 455.353 317.454 455.248C317.27 455.143 317.033 455.09 316.771 455.09C316.508 455.09 316.271 455.143 316.087 455.248C315.877 455.353 315.745 455.51 315.614 455.72C315.509 455.93 315.456 456.167 315.456 456.455V456.692C315.456 456.981 315.509 457.217 315.64 457.453C315.772 457.663 315.956 457.847 316.166 457.952C316.403 458.057 316.665 458.11 316.981 458.11C317.27 458.11 317.506 458.057 317.717 457.978C317.927 457.9 318.111 457.768 318.295 457.611L319.11 458.477C318.873 458.74 318.558 458.95 318.216 459.108C317.848 459.265 317.428 459.318 316.955 459.318H316.902Z" fill="white"/>
<path d="M320.58 459.238V454.013H322.105V459.238H320.58ZM321.658 457.269V456.061H323.472V457.269H321.658ZM323.918 456.822L322.499 456.665L324.339 454.039H325.942L323.918 456.822ZM324.286 459.238L322.525 456.77L323.761 456.035L326.074 459.238H324.286Z" fill="white"/>
<path d="M329.148 459.318C328.596 459.318 328.07 459.213 327.65 458.976C327.203 458.74 326.861 458.425 326.625 458.031C326.388 457.611 326.257 457.164 326.257 456.639C326.257 456.114 326.388 455.641 326.625 455.248C326.861 454.854 327.229 454.539 327.65 454.302C328.097 454.066 328.596 453.961 329.148 453.961C329.7 453.961 330.173 454.066 330.594 454.302C331.014 454.539 331.303 454.854 331.487 455.3L330.304 455.93C330.173 455.694 329.989 455.51 329.805 455.379C329.595 455.274 329.385 455.195 329.148 455.195C328.885 455.195 328.649 455.248 328.438 455.379C328.228 455.484 328.07 455.668 327.939 455.878C327.808 456.088 327.755 456.35 327.755 456.666C327.755 456.981 327.808 457.217 327.939 457.453C328.07 457.663 328.228 457.821 328.438 457.952C328.649 458.057 328.885 458.136 329.148 458.136C329.385 458.136 329.621 458.084 329.805 457.978C329.989 457.873 330.173 457.69 330.304 457.427L331.487 458.057C331.303 458.477 330.988 458.792 330.594 459.029C330.173 459.265 329.7 459.37 329.148 459.37V459.318Z" fill="white"/>
<path d="M280.242 367.321V376.169H288.441L288.467 361.414L270.387 356.478L270.413 323.686H262.188H259.691L262.162 331.116L262.135 362.386L280.242 367.321Z" fill="white"/>
<path d="M291.726 376.169H299.952V326.101L291.726 323.686V351.017L281.898 348.287V323.686L273.672 326.128V354.247L291.726 359.13V376.169Z" fill="white"/>
<path d="M313.933 323.686H311.462H303.237V356.504V364.643L311.515 362.386L311.462 331.116L313.933 323.686Z" fill="white"/>
<path d="M269.52 387.642H304.104L301.581 379.451H272.017L269.52 387.642Z" fill="white"/>
<path d="M268.758 390.924L266.261 399.142H307.362L304.84 390.924H268.758Z" fill="white"/>
</svg>
