<svg width="213" height="82" viewBox="0 0 213 82" fill="none" xmlns="http://www.w3.org/2000/svg">
<path d="M128.653 65.9153C127.262 65.9153 126.168 65.5249 125.356 64.7597C124.543 63.9789 124.152 62.917 124.152 61.5428V56.9205H127.294V61.3398C127.294 61.8239 127.45 62.1987 127.762 62.4641C128.075 62.7296 128.481 62.8702 128.997 62.8702C129.747 62.8702 130.45 62.7609 131.123 62.5266V56.9361H134.264V69.8505H131.123V65.5093C130.325 65.7747 129.497 65.9153 128.669 65.9153H128.653Z" fill="white"/>
<path d="M139.546 66.9459H144.454V69.8505H136.374V56.9361H144.36V59.8094H139.531V61.9332H143.891V64.7753H139.531V66.9459H139.546Z" fill="white"/>
<path d="M160.817 69.8505H157.535L156.425 64.3693L153.268 70.1316H153.096L149.955 64.4162L148.83 69.8661H145.516L148.189 56.6706H148.611L153.159 64.7753L157.722 56.6706H158.128L160.801 69.8661L160.817 69.8505Z" fill="white"/>
<path d="M162.192 69.8505V56.9361H172.116V69.8505H168.959V59.9812H165.364V69.8505H162.208H162.192Z" fill="white"/>
<path d="M185.838 69.8505H182.696V63.0732L174.445 70.1316H174.257V56.9361H177.414V63.7135L185.666 56.655H185.838V69.8505Z" fill="white"/>
<path d="M188.37 66.8054C187.776 65.7748 187.479 64.6348 187.479 63.3855C187.479 62.1363 187.776 60.9963 188.37 59.9656C188.964 58.935 189.792 58.1229 190.823 57.5452C191.87 56.9517 193.011 56.655 194.293 56.655C195.574 56.655 196.7 56.9517 197.731 57.5452C198.763 58.1386 199.591 58.9506 200.185 59.9813C200.779 61.0119 201.076 62.1519 201.076 63.4011C201.076 64.6504 200.779 65.7748 200.185 66.8054C199.591 67.8361 198.778 68.6481 197.731 69.2415C196.7 69.8349 195.543 70.1316 194.277 70.1316C193.011 70.1316 191.839 69.8349 190.792 69.2415C189.745 68.6481 188.932 67.8361 188.338 66.821L188.37 66.8054ZM197.481 65.2594C197.794 64.7129 197.95 64.0882 197.95 63.4011C197.95 62.714 197.794 62.0894 197.465 61.5428C197.153 60.9963 196.715 60.559 196.153 60.2311C195.606 59.9188 194.981 59.747 194.293 59.747C193.605 59.747 192.98 59.9032 192.417 60.2155C191.855 60.5278 191.417 60.9651 191.089 61.5116C190.777 62.0582 190.605 62.6984 190.605 63.4011C190.605 64.1039 190.761 64.7129 191.073 65.2751C191.386 65.8372 191.824 66.2745 192.386 66.5868C192.949 66.8991 193.574 67.0553 194.277 67.0553C194.981 67.0553 195.606 66.8991 196.168 66.5712C196.731 66.2432 197.153 65.8216 197.465 65.2594H197.481Z" fill="white"/>
<path d="M202.717 69.8505V56.9361H205.874V61.3866H209.843V56.9361H213V69.8505H209.843V64.4161H205.874V69.8505H202.717Z" fill="white"/>
<path d="M143 81.2808H141.938L143.094 79.3759L143.829 79.8131L143 81.2808ZM143 79.8443L142 78.1893H142.953L143.844 79.7507L143 79.8443ZM144.36 80.1098H143.282V79.3915H144.36V80.1098ZM144.985 81.2808H144.094V78.1737H144.985V81.2808ZM144.719 80.1098V79.3915H145.798V80.1098H144.719ZM146.063 79.8443L145.219 79.7507L146.11 78.1893H147.064L146.063 79.8443ZM146.063 81.2808L145.235 79.8131L145.97 79.3759L147.142 81.2808H146.079H146.063Z" fill="white"/>
<path d="M147.611 81.2808V78.1737H148.502V80.0161L150.017 78.1737H150.846V81.2808H149.955V79.4384L148.455 81.2808H147.626H147.611Z" fill="white"/>
<path d="M151.314 81.2808L151.361 80.547C151.361 80.547 151.408 80.547 151.424 80.547C151.439 80.547 151.471 80.547 151.486 80.547C151.596 80.547 151.674 80.5157 151.736 80.4533C151.799 80.3908 151.846 80.3128 151.877 80.2035C151.908 80.0942 151.924 79.9849 151.94 79.8443C151.94 79.7038 151.971 79.5633 151.971 79.4228L152.018 78.1737H154.675V81.2808H153.768V78.6889L153.971 78.9075H152.612L152.799 78.6733L152.752 79.454C152.752 79.735 152.721 79.9849 152.69 80.2191C152.659 80.4533 152.612 80.6563 152.533 80.8124C152.455 80.9842 152.362 81.1091 152.237 81.2027C152.112 81.2964 151.955 81.3433 151.768 81.3433C151.705 81.3433 151.627 81.3433 151.549 81.3276C151.471 81.3276 151.393 81.2964 151.299 81.2808H151.314Z" fill="white"/>
<path d="M157.003 81.3276C156.675 81.3276 156.378 81.2652 156.128 81.1247C155.878 80.9842 155.675 80.7968 155.518 80.5626C155.362 80.3284 155.3 80.0473 155.3 79.7351C155.3 79.4228 155.378 79.1417 155.518 78.9075C155.659 78.6733 155.862 78.486 156.128 78.3454C156.378 78.2049 156.675 78.1424 157.003 78.1424C157.331 78.1424 157.628 78.2049 157.878 78.3454C158.128 78.486 158.332 78.6733 158.488 78.9075C158.629 79.1417 158.707 79.4228 158.707 79.7351C158.707 80.0473 158.629 80.3128 158.488 80.5626C158.347 80.7968 158.144 80.9998 157.878 81.1247C157.613 81.2652 157.331 81.3276 157.003 81.3276ZM157.003 80.5938C157.159 80.5938 157.285 80.5626 157.41 80.4845C157.535 80.4064 157.628 80.3128 157.691 80.1878C157.753 80.0629 157.8 79.9068 157.8 79.7351C157.8 79.5633 157.769 79.4072 157.691 79.2666C157.628 79.1417 157.535 79.048 157.41 78.97C157.285 78.9075 157.159 78.8607 157.003 78.8607C156.847 78.8607 156.722 78.8919 156.597 78.97C156.472 79.0324 156.378 79.1417 156.316 79.2666C156.237 79.3915 156.206 79.5477 156.206 79.7351C156.206 79.9224 156.237 80.0629 156.316 80.1878C156.394 80.3128 156.487 80.4221 156.597 80.4845C156.722 80.547 156.847 80.5938 157.003 80.5938Z" fill="white"/>
<path d="M159.332 81.2808V78.1737H160.223V80.0161L161.739 78.1737H162.567V81.2808H161.676V79.4384L160.176 81.2808H159.348H159.332ZM160.895 77.8458C160.551 77.8458 160.301 77.7677 160.129 77.6272C159.957 77.4867 159.879 77.2525 159.863 76.9558H160.457C160.457 77.0807 160.504 77.19 160.567 77.2681C160.629 77.3461 160.738 77.3773 160.879 77.3773C161.02 77.3773 161.129 77.3461 161.207 77.2681C161.285 77.19 161.317 77.0807 161.317 76.9558H161.911C161.911 77.2525 161.817 77.4867 161.645 77.6272C161.473 77.7677 161.223 77.8458 160.879 77.8458H160.895Z" fill="white"/>
<path d="M165.068 81.2808V78.1737H165.974V81.2808H165.068ZM165.693 80.1098V79.3915H166.771V80.1098H165.693ZM167.037 79.8443L166.193 79.7507L167.287 78.1893H168.24L167.037 79.8443ZM167.271 81.2808L166.224 79.8131L166.959 79.3759L168.334 81.2808H167.271Z" fill="white"/>
<path d="M170.131 81.3276C169.803 81.3276 169.506 81.2652 169.256 81.1247C169.006 80.9842 168.803 80.7968 168.647 80.5626C168.49 80.3284 168.428 80.0473 168.428 79.7351C168.428 79.4228 168.506 79.1417 168.647 78.9075C168.787 78.6733 168.99 78.486 169.256 78.3454C169.506 78.2049 169.803 78.1424 170.131 78.1424C170.459 78.1424 170.756 78.2049 171.006 78.3454C171.256 78.486 171.46 78.6733 171.616 78.9075C171.757 79.1417 171.835 79.4228 171.835 79.7351C171.835 80.0473 171.757 80.3128 171.616 80.5626C171.475 80.7968 171.272 80.9998 171.006 81.1247C170.756 81.2652 170.459 81.3276 170.131 81.3276ZM170.131 80.5938C170.288 80.5938 170.413 80.5626 170.538 80.4845C170.663 80.4221 170.756 80.3128 170.819 80.1878C170.881 80.0629 170.928 79.9068 170.928 79.7351C170.928 79.5633 170.897 79.4072 170.819 79.2666C170.756 79.1417 170.663 79.048 170.538 78.97C170.413 78.9075 170.288 78.8607 170.131 78.8607C169.975 78.8607 169.85 78.8919 169.725 78.97C169.6 79.0324 169.506 79.1417 169.444 79.2666C169.365 79.3915 169.334 79.5477 169.334 79.7351C169.334 79.9224 169.365 80.0629 169.444 80.1878C169.522 80.3128 169.615 80.4221 169.725 80.4845C169.834 80.547 169.975 80.5938 170.131 80.5938Z" fill="white"/>
<path d="M172.444 81.2808V78.1737H173.382L174.554 80.2971H174.179L175.429 78.1737H176.273V81.2808H175.476V79.0949L175.617 79.1886L174.554 80.9842H174.179L173.1 79.1261L173.272 79.0793V81.2652H172.46L172.444 81.2808Z" fill="white"/>
<path d="M177.148 81.2808V78.1737H180.243V81.2808H179.336V78.7201L179.54 78.9231H177.836L178.039 78.7201V81.2808H177.148Z" fill="white"/>
<path d="M180.712 81.2808L180.759 80.547C180.759 80.547 180.805 80.547 180.821 80.547C180.837 80.547 180.868 80.547 180.884 80.547C180.993 80.547 181.071 80.5157 181.134 80.4533C181.196 80.3908 181.243 80.3128 181.274 80.2035C181.306 80.0942 181.321 79.9849 181.337 79.8443C181.352 79.7038 181.368 79.5633 181.368 79.4228L181.415 78.1737H184.072V81.2808H183.165V78.6889L183.369 78.9075H182.009L182.196 78.6733L182.15 79.454C182.15 79.735 182.118 79.9849 182.087 80.2191C182.056 80.4533 182.009 80.6563 181.931 80.8124C181.853 80.9842 181.759 81.1091 181.634 81.2027C181.509 81.2964 181.352 81.3433 181.165 81.3433C181.102 81.3433 181.024 81.3433 180.946 81.3276C180.868 81.3276 180.79 81.2964 180.696 81.2808H180.712Z" fill="white"/>
<path d="M186.479 81.3276C186.119 81.3276 185.807 81.2652 185.541 81.1247C185.275 80.9842 185.072 80.7968 184.916 80.5626C184.775 80.3284 184.697 80.0473 184.697 79.7351C184.697 79.4228 184.775 79.1417 184.916 78.9075C185.056 78.6733 185.26 78.486 185.51 78.3454C185.76 78.2049 186.041 78.1424 186.354 78.1424C186.666 78.1424 186.932 78.2049 187.182 78.3298C187.432 78.4547 187.619 78.6421 187.76 78.8763C187.901 79.1105 187.979 79.4072 187.979 79.7351C187.979 79.7663 187.979 79.8131 187.979 79.86C187.979 79.9068 187.979 79.938 187.979 79.9849H185.463V79.454H187.51L187.166 79.6101C187.166 79.454 187.135 79.3135 187.072 79.1886C187.01 79.0637 186.916 78.97 186.807 78.9075C186.697 78.8451 186.557 78.8138 186.4 78.8138C186.244 78.8138 186.103 78.8451 185.994 78.9075C185.869 78.97 185.791 79.0637 185.713 79.1886C185.65 79.3135 185.619 79.454 185.619 79.6257V79.7663C185.619 79.938 185.65 80.0786 185.728 80.2191C185.807 80.344 185.916 80.4533 186.041 80.5157C186.182 80.5782 186.338 80.6094 186.525 80.6094C186.697 80.6094 186.838 80.5782 186.963 80.5313C187.088 80.4845 187.197 80.4064 187.307 80.3128L187.791 80.828C187.651 80.9841 187.463 81.1091 187.26 81.2027C187.041 81.2964 186.791 81.3276 186.51 81.3276H186.479Z" fill="white"/>
<path d="M188.666 81.2808V78.1737H189.573V81.2808H188.666ZM189.307 80.1098V79.3915H190.385V80.1098H189.307ZM190.651 79.8443L189.807 79.7507L190.901 78.1893H191.855L190.651 79.8443ZM190.87 81.2808L189.823 79.8131L190.557 79.3759L191.933 81.2808H190.87Z" fill="white"/>
<path d="M193.761 81.3276C193.433 81.3276 193.12 81.2652 192.87 81.1247C192.605 80.9842 192.402 80.7968 192.261 80.5626C192.12 80.3128 192.042 80.0473 192.042 79.7351C192.042 79.4228 192.12 79.1417 192.261 78.9075C192.402 78.6733 192.62 78.486 192.87 78.3454C193.136 78.2049 193.433 78.1424 193.761 78.1424C194.089 78.1424 194.371 78.2049 194.621 78.3454C194.871 78.486 195.043 78.6733 195.152 78.9387L194.449 79.3135C194.371 79.1729 194.261 79.0636 194.152 78.9856C194.027 78.9231 193.902 78.8763 193.761 78.8763C193.605 78.8763 193.464 78.9075 193.339 78.9856C193.214 79.048 193.12 79.1573 193.042 79.2822C192.964 79.4071 192.933 79.5633 192.933 79.7507C192.933 79.938 192.964 80.0786 193.042 80.2191C193.12 80.344 193.214 80.4377 193.339 80.5157C193.464 80.5782 193.605 80.625 193.761 80.625C193.902 80.625 194.043 80.5938 194.152 80.5313C194.261 80.4689 194.371 80.3596 194.449 80.2035L195.152 80.5782C195.043 80.828 194.855 81.0154 194.621 81.1559C194.371 81.2964 194.089 81.3589 193.761 81.3589V81.3276Z" fill="white"/>
<path d="M164.677 26.61V31.8726H169.553L169.569 23.0964L158.816 20.1606L158.832 0.656296H153.94H152.455L153.924 5.07562L153.909 23.6742L164.677 26.61Z" fill="white"/>
<path d="M171.507 31.8726H176.398V2.09296L171.507 0.656281V16.9125L165.661 15.2884V0.656281L160.77 2.10857V18.8333L171.507 21.7378V31.8726Z" fill="white"/>
<path d="M184.713 0.656281H183.244H178.352V20.1762V25.0172L183.275 23.6742L183.244 5.0756L184.713 0.656281Z" fill="white"/>
<path d="M158.301 38.696H178.868L177.367 33.8245H159.785L158.301 38.696Z" fill="white"/>
<path d="M157.847 40.6487L156.363 45.5358H180.805L179.305 40.6487H157.847Z" fill="white"/>
<path fill-rule="evenodd" clip-rule="evenodd" d="M26.8028 69.788C25.4744 68.4763 24.8961 67.0552 24.4741 65.9777C24.2397 65.3843 23.9115 64.3068 23.1145 64.3068C20.5201 64.3068 19.1448 72.7394 18.6604 75.2068C16.0973 72.0055 13.8312 69.2883 11.987 65.5405C11.3775 67.4769 10.8618 69.4913 10.3148 71.4589C7.62668 65.9153 6.04821 61.8707 5.23553 55.2652L3.12569 58.9506C1.31279 51.9078 0.984595 46.7389 2.60995 39.3057L0 40.8048C1.3753 32.3878 3.57891 25.8916 11.0024 19.5671C8.64253 12.7898 9.14264 6.65269 11.6432 0.5C15.1596 2.17091 22.1768 6.51215 26.0214 4.62261C30.5223 2.40515 35.7422 2.1553 40.6027 3.09226C45.4631 2.13968 50.6987 2.40515 55.184 4.62261C58.8411 6.43407 65.6394 2.3583 69.5622 0.5C72.1409 7.04309 72.5628 12.7898 70.2029 19.5671C77.5327 25.8291 79.7988 32.1379 81.2054 40.8048L78.5954 39.3057C80.2364 46.7389 80.127 51.9858 78.0797 58.9506L75.9698 55.2652C75.1728 61.7146 74.1569 66.1027 70.8906 71.4589C70.3436 69.4913 69.8279 67.4769 69.2183 65.5405C67.3742 69.3039 65.1237 72.0055 62.545 75.2068C62.0605 72.7394 60.7009 64.3068 58.0909 64.3068C57.2939 64.3068 56.9657 65.3843 56.7312 65.9777C56.3093 67.0552 55.731 68.4919 54.4026 69.788C53.84 79.548 45.7601 77.8927 40.6183 81.5C35.4766 77.9083 27.3967 79.5636 26.834 69.788H26.8028Z" fill="white"/>
<path fill-rule="evenodd" clip-rule="evenodd" d="M78.4548 37.1975C76.6106 29.733 73.9069 24.7984 68.0619 20.1292C69.8591 15.8036 70.6874 9.76023 68.4838 2.96729C63.4515 5.35653 58.5285 8.2611 54.387 6.21541C48.0106 3.0766 41.0872 4.8412 40.5871 4.90366C40.087 4.8412 33.1636 3.0766 26.7872 6.21541C22.6456 8.2611 18.0509 5.51269 12.6903 2.96729C10.4867 9.74461 11.2994 15.8036 13.1123 20.1292C7.26723 24.7984 4.56352 29.733 2.71936 37.1975C4.2822 36.2917 5.43871 35.7764 5.43871 35.7764C3.98526 40.0708 2.71936 46.7388 4.00089 53.8129C5.11051 51.8765 6.56396 50.3461 6.56396 50.3461C6.90778 55.2339 7.43915 60.5433 9.9397 66.1963C10.7993 63.1044 11.9089 60.7776 11.9089 60.7776C13.4405 65.0407 15.3315 68.2264 17.6445 71.1153C19.4418 61.9488 23.3333 61.5271 25.1462 63.4791C26.2714 64.6816 26.2089 67.102 28.5688 68.976C28.5688 77.9864 37.9302 77.471 40.5871 79.3293C43.2439 77.471 52.6053 77.9864 52.6053 68.976C54.9652 67.102 54.9027 64.6816 56.028 63.4791C57.8409 61.5428 61.7323 61.9488 63.5296 71.1153C65.8426 68.242 67.7337 65.0407 69.2653 60.7776C69.2653 60.7776 70.3749 63.1044 71.2344 66.1963C73.735 60.5433 74.2664 55.2339 74.6102 50.3461C74.6102 50.3461 76.0636 51.8765 77.1732 53.8129C78.4548 46.7388 77.2045 40.0708 75.7354 35.7764C75.7354 35.7764 76.8919 36.2917 78.4548 37.1975Z" fill="#050703"/>
<path fill-rule="evenodd" clip-rule="evenodd" d="M63.2483 29.7799C61.8105 22.9245 57.919 19.7076 55.3872 18.0836C60.1695 8.60468 45.135 8.18304 40.9778 11.8684C42.0718 11.4936 47.8231 9.63533 53.1367 12.2744C51.9021 11.7123 42.7594 11.3999 40.9309 15.1634C42.103 14.6949 48.1825 12.4462 53.9806 15.585C52.6835 15.0853 45.0099 14.7886 41.8061 17.3184C43.1658 18.1148 44.1347 19.0205 44.8224 20.223C43.1189 18.8644 41.9624 18.4427 40.5715 18.146C39.1805 18.4584 38.024 18.8644 36.3205 20.223C37.0238 19.0049 37.9928 18.0992 39.3681 17.3028C36.1486 14.8042 28.5063 15.1009 27.2091 15.585C33.0073 12.4462 39.0868 14.6949 40.2589 15.1634C38.4147 11.3999 29.2877 11.7123 28.0531 12.2744C33.3667 9.63533 39.2118 11.4936 40.3058 11.8684C38.868 9.32301 31.6476 9.52601 30.7881 9.91641C34.4139 7.60525 40.0557 9.47917 40.6027 9.66656C43.1658 8.32359 47.6199 7.63649 51.4801 8.0425C47.4636 6.2779 41.556 7.94881 40.6027 8.0425C37.2895 7.76142 32.5697 6.24667 27.5373 9.2137C23.9741 11.3062 18.4728 8.65153 14.3626 6.38721C13.4874 9.72903 14.5501 15.0853 16.4411 17.8181C16.6756 17.6619 16.9256 17.5058 17.1757 17.3496C16.2067 16.1472 15.144 14.1015 14.7845 10.1194C15.8785 11.7903 17.8946 11.7591 17.8946 11.7591L16.7381 13.0708C16.7381 13.0708 18.1446 14.3357 19.9107 15.5069C21.8173 14.164 23.7084 12.6961 25.0837 11.3375C23.052 15.5382 18.426 19.9887 15.6128 22.0969C12.2215 24.6423 9.11141 28.7649 7.64233 32.7001C12.6747 25.6885 19.2855 23.2681 19.2855 23.2681C16.6443 27.297 15.2221 31.3103 14.5032 33.9025L17.9884 31.7632C17.9884 31.7632 15.4878 36.526 16.2692 42.4601C16.3943 42.3039 18.7542 39.0558 18.7542 39.0558C18.7542 39.0558 19.4574 43.2253 20.3639 45.4115C20.6608 43.116 22.2549 42.788 23.849 43.1784C22.3487 40.3988 22.9738 35.2611 27.4592 34.0431C28.1 30.5139 32.7416 30.0454 34.2888 31.1697C32.3978 31.0136 30.3348 31.4196 29.5534 33.7776C30.2098 33.7776 30.9131 33.8401 31.6789 33.9806C30.6474 34.1055 29.444 34.371 28.35 34.8707C25.5369 36.1825 35.1796 40.8829 33.8825 38.4936C33.3042 37.4317 33.0229 35.6359 34.3513 32.7001C33.9606 34.6053 34.1482 37.057 35.5391 38.3687C36.1955 37.6348 36.93 36.8852 36.93 36.8852C36.93 36.8852 38.4772 37.9627 40.6183 38.5093C42.7594 37.9783 44.3067 36.8852 44.3067 36.8852C44.3067 36.8852 45.5569 38.2125 45.6976 38.3687C47.0729 37.057 47.2604 34.6053 46.8853 32.7001C48.2138 35.6359 47.9481 37.4317 47.3698 38.4936C48.6982 39.1807 53.0898 37.1663 52.8867 34.8863C51.8083 34.371 50.5893 34.1056 49.5578 33.9962C50.2611 33.8713 50.9175 33.8088 51.527 33.7932C50.7612 31.4352 48.6826 31.0292 46.7916 31.1854C48.3075 30.061 52.8867 30.5295 53.5899 33.965C57.794 34.7926 59.1849 38.5405 58.8411 41.5387C60.9666 38.5092 60.9978 34.777 60.9978 34.777C60.9978 34.777 61.4094 35.2247 62.2325 36.12C62.6232 31.076 61.0916 27.9529 61.0916 27.9529C61.0916 27.9529 61.873 28.6243 63.2639 29.8112L63.2483 29.7799Z" fill="#E9530D"/>
<path fill-rule="evenodd" clip-rule="evenodd" d="M66.1865 23.6116C68.3901 25.7979 71.2188 27.9685 73.5475 32.6845C70.6406 24.9078 65.7801 22.8777 61.3729 18.2085C62.295 19.8014 64.6549 22.0813 66.1865 23.6116Z" fill="#E9530D"/>
<path fill-rule="evenodd" clip-rule="evenodd" d="M62.3262 12.1963L62.8732 10.2912C62.8732 10.2912 64.8892 11.3687 66.1551 10.6191C66.4052 11.9153 66.4208 13.2582 66.3114 14.5075C67.0928 12.1495 67.3585 8.58907 66.7803 6.38721C64.0765 7.40225 61.3728 9.82272 55.731 8.8233C59.0598 9.6978 62.3262 12.212 62.3262 12.212V12.1963Z" fill="#E9530D"/>
<path fill-rule="evenodd" clip-rule="evenodd" d="M27.7249 29.5145C24.1616 28.0778 19.9576 23.4711 25.5838 18.0836C29.5534 18.4271 32.5541 19.8013 34.2576 23.6741C35.5548 22.6903 37.352 22.05 37.352 22.05C37.352 22.05 34.5702 25.0327 35.2891 27.4219C31.7102 27.094 27.7405 29.5145 27.7405 29.5145H27.7249Z" fill="white"/>
<path fill-rule="evenodd" clip-rule="evenodd" d="M24.3647 36.0419C22.4267 34.1524 21.3796 30.4202 22.5361 27.1252C19.7699 29.7018 18.9416 37.7909 23.0988 40.5706C22.9894 39.0246 23.3644 37.3381 24.3647 36.0419Z" fill="white"/>
<path fill-rule="evenodd" clip-rule="evenodd" d="M40.9465 56.7487C40.8527 58.2476 40.8371 59.6997 40.587 59.6997C40.337 59.6997 40.3214 58.1695 40.212 56.6238C39.0242 56.4988 37.9302 56.655 37.2113 56.6862C37.2113 56.9985 37.2426 57.3264 37.3051 57.6699C37.6802 59.9339 39.1492 61.7763 40.587 61.7763C41.8998 61.7763 43.2595 60.2305 43.7596 58.2164C42.8688 57.3732 41.8998 56.9516 40.9465 56.7487Z" fill="#9C1929"/>
<path fill-rule="evenodd" clip-rule="evenodd" d="M59.5757 44.8493C62.0137 41.7105 62.0919 39.2901 62.2013 38.3999C62.9202 39.2744 63.5297 39.7429 63.5297 39.7429C63.5297 39.7429 64.2173 36.4323 63.5297 31.8412C64.7487 32.6376 65.3113 33.0749 65.3113 33.0749C65.3113 33.0749 64.5924 28.843 63.7641 27.1252C65.6708 30.1235 66.4053 33.6371 66.1553 35.4017C65.3269 34.7302 64.905 34.5116 64.905 34.5116C64.905 34.5116 65.327 38.7903 64.2173 41.5231C63.6235 41.0547 63.1546 40.6955 62.8577 40.3832C62.8577 40.3832 61.5136 43.4907 59.5913 44.8337L59.5757 44.8493Z" fill="white"/>
<path fill-rule="evenodd" clip-rule="evenodd" d="M66.1553 10.6191C66.6397 13.1021 66.2803 15.788 65.7177 17.5839C66.9367 15.3976 67.9213 11.1189 66.7804 6.38721C66.5772 7.40225 65.5301 10.2912 62.8733 10.2912C62.8733 10.2912 64.8894 11.3687 66.1553 10.6191Z" fill="white"/>
<path fill-rule="evenodd" clip-rule="evenodd" d="M34.32 27.5625C34.32 27.5625 36.1798 27.5156 37.3207 27.8279C36.4142 26.1414 34.6013 25.8291 33.4604 26.0633C30.3191 21.5347 26.959 21.0506 24.5679 22.5654C24.2397 21.6753 24.1303 19.895 25.5837 18.0836C22.0361 19.3329 21.8798 22.6747 22.5987 24.6111C20.989 27.2033 20.7702 31.1229 23.1144 34.3554C21.661 28.9211 23.677 26.5474 25.9275 26.36C26.7715 27.4844 28.0061 28.0778 28.0061 28.0778C28.0061 28.0778 27.6623 28.7493 27.7404 29.5145C33.5073 26.5631 36.8674 31.1541 37.3207 33.5122C37.4613 28.3901 34.32 27.5625 34.32 27.5625Z" fill="#050703"/>
<path fill-rule="evenodd" clip-rule="evenodd" d="M27.1935 19.9259C29.0845 20.1133 30.241 20.6129 31.0068 21.4561C31.5694 20.5973 33.1635 18.1616 35.6172 17.74C32.9135 17.2716 28.9126 18.2865 27.1935 19.9259Z" fill="#050703"/>
<path fill-rule="evenodd" clip-rule="evenodd" d="M53.2461 29.5145C56.8094 28.0778 61.0135 23.4711 55.3872 18.0836C51.4176 18.4271 48.417 19.8013 46.7135 23.6741C45.4163 22.6903 43.619 22.05 43.619 22.05C43.619 22.05 46.4009 25.0327 45.682 27.4219C49.2609 27.094 53.2305 29.5145 53.2305 29.5145H53.2461Z" fill="white"/>
<path fill-rule="evenodd" clip-rule="evenodd" d="M55.3872 18.0836C56.8406 19.895 56.7312 21.6753 56.403 22.5654C54.0275 21.0506 50.6674 21.5503 47.5104 26.0633C46.3696 25.8291 44.5567 26.157 43.6502 27.8279C44.7911 27.5156 46.6509 27.5625 46.6509 27.5625C46.6509 27.5625 43.5096 28.3745 43.6502 33.5122C44.1034 31.1541 47.4636 26.5631 53.2304 29.5145C53.3086 28.7493 52.9648 28.0778 52.9648 28.0778C52.9648 28.0778 54.1994 27.5 55.0433 26.36C57.2938 26.5318 59.2943 28.9211 57.8565 34.3554C60.6696 31.0605 60.9822 20.0668 55.3715 18.0836H55.3872Z" fill="#050703"/>
<path fill-rule="evenodd" clip-rule="evenodd" d="M53.0585 23.471C52.6365 23.6428 52.2458 23.8302 51.902 24.0175C52.3552 24.1737 52.6678 24.6109 52.6678 25.1105C52.6678 25.7507 52.1521 26.2659 51.5113 26.2659C50.8705 26.2659 50.3392 25.735 50.3548 25.0793C49.8234 25.5321 49.4015 25.9849 48.9951 26.422C49.6984 27.3276 52.0427 28.1239 53.7618 26.2503C55.2934 24.5952 53.9337 23.4242 53.0429 23.4554L53.0585 23.471Z" fill="#FFDA6D"/>
<path fill-rule="evenodd" clip-rule="evenodd" d="M53.7775 19.9259C51.8864 20.1133 50.7299 20.6129 49.9641 21.4561C49.4015 20.5973 47.8074 18.1616 45.3538 17.74C48.0575 17.2716 52.0584 18.2865 53.7775 19.9259Z" fill="#050703"/>
<path fill-rule="evenodd" clip-rule="evenodd" d="M31.2414 49.2686C31.0069 52.8916 32.3197 55.0153 33.3668 57.1391C33.0543 54.9216 33.57 51.6735 34.3983 49.6903C33.7263 49.0344 32.0384 48.6752 31.2414 49.2686Z" fill="white"/>
<path fill-rule="evenodd" clip-rule="evenodd" d="M49.9485 50.1119C49.6672 48.9407 47.573 48.6284 46.5884 49.2999C47.4948 51.2206 48.1356 54.7811 47.7918 57.1235C48.7607 55.1715 49.9485 53.2195 49.9485 50.0963V50.1119Z" fill="white"/>
<path fill-rule="evenodd" clip-rule="evenodd" d="M43.0407 48.5972C41.6029 48.847 39.5399 48.847 38.1021 48.5972C37.7114 48.5347 36.8987 48.2693 36.6174 48.7689C36.3361 49.2686 36.4455 50.3147 36.7112 51.2047C37.2738 50.7675 37.7426 49.5808 37.7426 49.5808L38.4772 50.1429L39.1648 49.5496L39.8994 50.0649L40.5401 49.5652L41.1809 50.0649L41.9154 49.5496L42.6031 50.1429L43.3376 49.5808C43.3376 49.5808 43.8065 50.7831 44.3691 51.2047C44.6348 50.3303 44.7442 49.2686 44.4629 48.7689C44.1816 48.2693 43.3689 48.5347 42.9782 48.5972H43.0407Z" fill="white"/>
<path fill-rule="evenodd" clip-rule="evenodd" d="M35.1796 58.3572C34.2888 60.5278 34.2732 63.3699 34.9764 64.7597C35.6797 66.1495 37.6176 65.3843 37.1957 63.3855C36.4143 62.6203 35.4609 60.559 35.164 58.3415L35.1796 58.3572Z" fill="white"/>
<path fill-rule="evenodd" clip-rule="evenodd" d="M45.9789 58.3571C45.6975 60.5746 44.7286 62.6359 43.9472 63.4011C43.5408 65.3999 45.4787 66.1651 46.1664 64.7753C46.8697 63.3855 46.854 60.5434 45.9632 58.3728L45.9789 58.3571Z" fill="white"/>
<path fill-rule="evenodd" clip-rule="evenodd" d="M42.4156 63.0263C41.978 63.2293 41.6967 63.6509 41.6967 63.6509C41.6967 63.6509 41.3372 63.1356 41.1184 63.0419C40.759 63.1824 40.5714 63.4635 40.5714 63.4635C40.5714 63.4635 40.3839 63.1981 40.0244 63.0419C39.8056 63.1356 39.4462 63.6509 39.4462 63.6509C39.4462 63.6509 39.1649 63.2293 38.7273 63.0263C37.8677 63.5416 38.149 64.3379 38.4772 64.2754C39.6962 64.0724 41.431 64.0724 42.65 64.2754C42.9782 64.3379 43.2595 63.5416 42.3999 63.0263H42.4156Z" fill="white"/>
<path fill-rule="evenodd" clip-rule="evenodd" d="M34.9921 66.9303C34.9921 67.4456 35.0233 67.961 35.0546 68.3826C34.5545 68.164 32.8041 66.7273 32.2102 65.9309C30.3035 63.4011 32.5384 58.8725 29.8347 55.6087C28.8032 56.3427 28.2093 56.655 28.2093 56.655C28.9751 47.2854 19.8638 41.7886 21.9267 52.8759C19.5199 49.6903 18.254 46.083 17.7852 43.0379C16.6443 44.2871 15.3315 46.6139 15.3315 46.6139C15.3315 46.6139 13.7061 39.415 15.1127 35.3236C12.7372 36.7759 11.6119 38.2438 11.6119 38.2438C11.6119 38.2438 12.6278 30.7481 19.2699 23.2524C19.2699 23.2524 12.659 25.6729 7.62668 32.6845C9.08013 31.9349 10.6586 31.9349 10.6586 31.9349C10.6586 31.9349 6.65772 36.3386 6.84526 45.9424C7.97051 44.4121 9.14264 43.2877 9.14264 43.2877C9.14264 43.2877 8.68942 50.9708 10.643 57.5139C11.6119 54.8435 12.7528 53.2351 12.7528 53.2351C12.7528 53.2351 14.0656 60.6214 16.8318 64.7597C19.9106 57.0142 27.2404 59.0442 28.2093 62.5422C29.2877 66.4774 31.9758 67.5862 31.9758 67.5862C31.9758 67.5862 30.1941 71.7712 35.2734 74.1917C35.039 73.3641 34.9764 71.8025 35.3046 70.7406C36.2424 74.9881 38.8992 74.8632 40.5871 75.9875C42.3374 74.832 45.1974 74.9881 45.8538 70.7406C46.3227 72.1773 46.2133 73.5202 45.8226 74.3323C55.5279 69.5694 42.4 63.5885 34.9921 66.9459V66.9303Z" fill="white"/>
<path fill-rule="evenodd" clip-rule="evenodd" d="M52.7303 23.6116C52.3239 23.799 51.9176 23.9707 51.5113 24.2518C51.4331 24.9544 52.0739 25.2354 52.6678 24.9388C53.246 24.6421 53.4023 23.8302 52.7303 23.6116Z" fill="white"/>
<path fill-rule="evenodd" clip-rule="evenodd" d="M30.6004 25.0793C30.616 25.7351 30.0846 26.2659 29.4438 26.2659C28.8031 26.2659 28.2873 25.7507 28.2873 25.1105C28.2873 24.6109 28.6155 24.1737 29.0688 24.0176C28.7249 23.8302 28.3499 23.6428 27.9123 23.4711C27.0214 23.4399 25.6618 24.6109 27.1934 26.2659C28.9125 28.1396 31.2567 27.3433 31.96 26.4377C31.5537 26.0005 31.1317 25.5321 30.6004 25.0793Z" fill="#FFDA6D"/>
<path fill-rule="evenodd" clip-rule="evenodd" d="M28.2407 23.6116C27.5687 23.8302 27.725 24.6265 28.3032 24.9388C28.8815 25.2511 29.5379 24.9388 29.4597 24.2518C29.0534 23.9707 28.6471 23.799 28.2407 23.6272V23.6116Z" fill="white"/>
<path fill-rule="evenodd" clip-rule="evenodd" d="M14.7377 10.1038C15.8316 11.7747 17.8477 11.7435 17.8477 11.7435C15.9723 10.2912 14.7377 7.30856 14.3313 6.38721C13.2061 11.681 14.472 16.116 15.8004 18.2085C16.2536 17.9118 16.6912 17.6307 17.1444 17.3496C16.1755 16.1472 15.0971 14.1015 14.7377 10.1038Z" fill="white"/>
<path fill-rule="evenodd" clip-rule="evenodd" d="M70.2811 54.3438C69.5622 52.6417 67.7337 50.2368 67.7337 50.2368C66.9835 53.3288 66.499 55.6243 64.2017 59.7938C62.3419 57.0922 58.5285 53.969 53.4962 55.1715C53.1211 56.6081 52.8554 60.2779 53.1524 62.0737C55.3872 57.1859 62.2169 59.4659 64.3423 64.7753C66.4365 61.8239 67.9369 56.9048 68.4213 53.2663C68.5151 53.4069 69.5935 54.9997 70.5156 57.5451C71 55.6712 72.2503 46.3797 72.0159 43.3189C72.0159 43.3189 71.4689 49.862 70.2655 54.375L70.2811 54.3438Z" fill="white"/>
<path fill-rule="evenodd" clip-rule="evenodd" d="M35.6797 40.1645C34.9608 39.7897 34.2419 39.1963 33.8512 38.4936C30.5224 36.8695 29.1158 35.9326 28.3188 34.8707C26.8184 35.4797 24.4742 38.4467 31.9758 41.0858C28.7095 40.6798 26.459 39.2119 25.2712 37.8846C23.5052 42.2883 31.085 43.5219 33.9294 43.6469C31.1162 44.0217 27.7092 43.5219 25.5056 42.7568C27.3654 45.8643 31.2725 46.2547 35.5547 45.6301C34.2732 46.3484 32.2259 46.8169 30.0379 46.9418C34.3201 49.4872 36.93 46.3016 39.9619 46.364C39.3056 43.3814 38.9774 41.851 35.711 40.1645H35.6797Z" fill="white"/>
<path fill-rule="evenodd" clip-rule="evenodd" d="M47.2447 43.6469C49.9953 43.5219 57.7627 42.2414 55.9029 37.8846C54.7151 39.2276 52.4646 40.6798 49.1983 41.0858C56.6999 38.4467 54.34 35.4797 52.8397 34.8707C52.0427 35.9326 50.6361 36.8539 47.3229 38.478C46.9165 39.2432 46.2445 39.7585 45.4944 40.1489C42.1811 41.851 41.8998 43.3658 41.2278 46.3484C44.2441 46.286 46.8696 49.4716 51.1518 46.9262C48.9639 46.8013 46.9165 46.3328 45.635 45.6145C49.9172 46.2391 53.8399 45.8643 55.6841 42.7411C53.4805 43.5063 50.0579 44.006 47.2604 43.6313L47.2447 43.6469Z" fill="white"/>
<path d="M112.275 36.3543L109.696 33.762L104.585 38.8685L99.4749 33.762L96.8806 36.3543L101.991 41.4607L96.8806 46.5671L99.4749 49.1438L104.585 44.0373L109.696 49.1438L112.275 46.5671L107.164 41.4607L112.275 36.3543Z" fill="#D80024"/>
</svg>
