<svg width="375" height="240" viewBox="0 0 375 240" fill="none" xmlns="http://www.w3.org/2000/svg">
<circle cx="187.351" cy="187.35" r="136.935" fill="#D80024"/>
<circle cx="187.499" cy="186.875" r="149.375" stroke="#FF5100" stroke-opacity="0.8" stroke-width="1.25001"/>
<circle cx="187.501" cy="186.875" r="168.125" stroke="#FF5100" stroke-opacity="0.4" stroke-width="1.25001"/>
<circle cx="187.5" cy="187.5" r="186.875" stroke="#FF5100" stroke-opacity="0.15" stroke-width="1.25001"/>
<path d="M158.41 142.793H151.496L149.934 137.031H142.336L140.773 142.793H134.738L142.668 115H149.973L158.41 142.793ZM146.027 121.23L145.422 124.512L143.332 132.07H148.977L146.906 124.512L146.34 121.23H146.027Z" fill="white"/>
<path d="M161.613 142.793V115H170.363L175.012 131.191L175.891 135.156H176.125L176.926 131.191L181.613 115H190.285V142.793H183.977V123.711H183.684L182.961 127.832L178.41 142.793H172.961L168.137 127.832L167.414 123.711H167.121V142.793H161.613Z" fill="white"/>
<path d="M207.844 142.793H198.371V137.832H205.324L206.77 136.426L207.297 133.516H198.098L194.289 115H201.008L203.41 128.555H208.039L210.168 115H216.281L212.258 138.398L207.844 142.793Z" fill="white"/>
<path d="M220.285 115H236.203L240.598 119.395V129.746L236.203 134.16H228.195L226.594 132.949V142.793H220.285V115ZM234.289 127.793V121.348L232.648 119.707H226.594V129.434H232.648L234.289 127.793Z" fill="white"/>
<path d="M194.328 161.871H181.008V156.793H194.328V161.871Z" fill="white"/>
<path d="M97.3945 195.168L93 190.754V176.086H99.3086V188.391L100.949 190.031H107.121V176.086H113.43V203.879H107.121V193.957L105.52 195.168H97.3945Z" fill="white"/>
<path d="M137.98 203.879H119.855V176.086H137.98V181.164H126.164V187.395H136.652V192.121H126.164V198.801H137.98V203.879Z" fill="white"/>
<path d="M143.371 203.879V176.086H152.121L156.77 192.277L157.648 196.242H157.883L158.684 192.277L163.371 176.086H172.043V203.879H165.734V184.797H165.441L164.719 188.918L160.168 203.879H154.719L149.895 188.918L149.172 184.797H148.879V203.879H143.371Z" fill="white"/>
<path d="M199.289 203.879H192.961V181.555H184.758V203.879H178.449V176.086H199.289V203.879Z" fill="white"/>
<path d="M219.68 188.352L212.746 203.879H205.676V176.086H211.984V194.523H212.199L213.039 191.633L219.953 176.086H227.023V203.879H220.715V185.441H220.52L219.68 188.352Z" fill="white"/>
<path d="M237.453 204.074L233.039 199.68V180.285L237.453 175.871H250.559L254.973 180.285V199.68L250.559 204.074H237.453ZM248.645 197.316V182.648L247.004 181.008H241.008L239.367 182.648V197.316L241.008 198.957H247.004L248.645 197.316Z" fill="white"/>
<path d="M282.336 203.879H276.027V192.238H267.297V203.879H260.988V176.086H267.297V186.75H276.027V176.086H282.336V203.879Z" fill="white"/>
</svg>
